<svg width="486" height="482" viewBox="0 0 486 482" fill="none" xmlns="http://www.w3.org/2000/svg">
<path d="M255 189.371C250 204.704 236.2 226.171 221 189.371L166.5 52.8706C140.667 25.5372 73.5 -12.7294 11.5 52.8706V434.871C36 457.871 101.3 490.071 166.5 434.871V290.5H313" stroke="#AAE5ED" stroke-width="23" stroke-linecap="round"/>
<path d="M225 188.186C230.113 203.871 244.225 225.83 259.768 188.186L315.499 48.5521C341.916 20.5914 410.6 -18.5537 474 48.5521V439.321C448.947 462.849 382.172 495.788 315.499 439.321V291" stroke="#AAE5ED" stroke-width="23" stroke-linecap="round"/>
<path d="M100.5 386V111L202.5 244.5H304.5L383 111V386" stroke="#88B1F8" stroke-width="23" stroke-linecap="round"/>
</svg>
