<svg width="190" height="58" viewBox="0 0 190 58" fill="none" xmlns="http://www.w3.org/2000/svg">
<path d="M3.52273 9.90909H7.72727L17.6136 34.0568H17.9545L27.8409 9.90909H32.0455V39H28.75V16.8977H28.4659L19.375 39H16.1932L7.10227 16.8977H6.81818V39H3.52273V9.90909ZM47.8018 39.4545C45.6996 39.4545 43.8861 38.9905 42.3615 38.0625C40.8464 37.125 39.6768 35.8182 38.853 34.142C38.0386 32.4564 37.6314 30.4962 37.6314 28.2614C37.6314 26.0265 38.0386 24.0568 38.853 22.3523C39.6768 20.6383 40.8227 19.303 42.2905 18.3466C43.7678 17.3807 45.4912 16.8977 47.4609 16.8977C48.5973 16.8977 49.7195 17.0871 50.8274 17.4659C51.9354 17.8447 52.9439 18.4602 53.853 19.3125C54.7621 20.1553 55.4865 21.2727 56.0263 22.6648C56.5661 24.0568 56.8359 25.7708 56.8359 27.8068V29.2273H40.0178V26.3295H53.4268C53.4268 25.0985 53.1806 24 52.6882 23.0341C52.2053 22.0682 51.514 21.3059 50.6143 20.7472C49.7242 20.1884 48.6731 19.9091 47.4609 19.9091C46.1257 19.9091 44.9704 20.2405 43.995 20.9034C43.0291 21.5568 42.2857 22.4091 41.7649 23.4602C41.2441 24.5114 40.9837 25.6383 40.9837 26.8409V28.7727C40.9837 30.4205 41.2678 31.8172 41.8359 32.9631C42.4136 34.0994 43.2138 34.9659 44.2365 35.5625C45.2592 36.1496 46.4477 36.4432 47.8018 36.4432C48.6825 36.4432 49.478 36.3201 50.1882 36.0739C50.9079 35.8182 51.5282 35.4394 52.049 34.9375C52.5698 34.4261 52.9723 33.7917 53.2564 33.0341L56.495 33.9432C56.1541 35.0417 55.5812 36.0076 54.7763 36.8409C53.9714 37.6648 52.977 38.3087 51.7933 38.7727C50.6096 39.2273 49.2791 39.4545 47.8018 39.4545ZM70.174 39.4545C68.3558 39.4545 66.7507 38.9953 65.3587 38.0767C63.9666 37.1487 62.8776 35.8419 62.0916 34.1562C61.3056 32.4612 60.9126 30.4583 60.9126 28.1477C60.9126 25.8561 61.3056 23.8674 62.0916 22.1818C62.8776 20.4962 63.9714 19.1941 65.3729 18.2756C66.7744 17.357 68.3937 16.8977 70.2308 16.8977C71.6513 16.8977 72.7734 17.1345 73.5973 17.608C74.4306 18.072 75.0651 18.6023 75.5007 19.1989C75.9458 19.786 76.2914 20.2689 76.5376 20.6477H76.8217V9.90909H80.174V39H76.9354V35.6477H76.5376C76.2914 36.0455 75.9411 36.5473 75.4865 37.1534C75.032 37.75 74.3833 38.285 73.5405 38.7585C72.6977 39.2225 71.5755 39.4545 70.174 39.4545ZM70.6286 36.4432C71.9732 36.4432 73.1096 36.0928 74.0376 35.392C74.9657 34.6818 75.6712 33.7017 76.1541 32.4517C76.6371 31.1922 76.8786 29.7386 76.8786 28.0909C76.8786 26.4621 76.6418 25.0369 76.1683 23.8153C75.6948 22.5843 74.9941 21.6278 74.0661 20.946C73.138 20.2547 71.9922 19.9091 70.6286 19.9091C69.2081 19.9091 68.0244 20.2737 67.0774 21.0028C66.1399 21.7225 65.4344 22.7027 64.9609 23.9432C64.4969 25.1742 64.2649 26.5568 64.2649 28.0909C64.2649 29.6439 64.5017 31.0549 64.9751 32.3239C65.4581 33.5833 66.1683 34.5871 67.1058 35.3352C68.0528 36.0739 69.227 36.4432 70.6286 36.4432ZM86.7791 39V17.1818H90.1314V39H86.7791ZM88.4837 13.5455C87.8303 13.5455 87.2668 13.3229 86.7933 12.8778C86.3293 12.4328 86.0973 11.8977 86.0973 11.2727C86.0973 10.6477 86.3293 10.1127 86.7933 9.66761C87.2668 9.22254 87.8303 9 88.4837 9C89.1371 9 89.6958 9.22254 90.1598 9.66761C90.6333 10.1127 90.87 10.6477 90.87 11.2727C90.87 11.8977 90.6333 12.4328 90.1598 12.8778C89.6958 13.3229 89.1371 13.5455 88.4837 13.5455ZM96.7259 9.90909H100.93L110.817 34.0568H111.158L121.044 9.90909H125.249V39H121.953V16.8977H121.669L112.578 39H109.396L100.305 16.8977H100.021V39H96.7259V9.90909ZM141.005 39.4545C138.903 39.4545 137.089 38.9905 135.565 38.0625C134.049 37.125 132.88 35.8182 132.056 34.142C131.242 32.4564 130.835 30.4962 130.835 28.2614C130.835 26.0265 131.242 24.0568 132.056 22.3523C132.88 20.6383 134.026 19.303 135.494 18.3466C136.971 17.3807 138.694 16.8977 140.664 16.8977C141.8 16.8977 142.923 17.0871 144.031 17.4659C145.138 17.8447 146.147 18.4602 147.056 19.3125C147.965 20.1553 148.69 21.2727 149.229 22.6648C149.769 24.0568 150.039 25.7708 150.039 27.8068V29.2273H133.221V26.3295H146.63C146.63 25.0985 146.384 24 145.891 23.0341C145.408 22.0682 144.717 21.3059 143.817 20.7472C142.927 20.1884 141.876 19.9091 140.664 19.9091C139.329 19.9091 138.174 20.2405 137.198 20.9034C136.232 21.5568 135.489 22.4091 134.968 23.4602C134.447 24.5114 134.187 25.6383 134.187 26.8409V28.7727C134.187 30.4205 134.471 31.8172 135.039 32.9631C135.617 34.0994 136.417 34.9659 137.44 35.5625C138.462 36.1496 139.651 36.4432 141.005 36.4432C141.886 36.4432 142.681 36.3201 143.391 36.0739C144.111 35.8182 144.731 35.4394 145.252 34.9375C145.773 34.4261 146.175 33.7917 146.46 33.0341L149.698 33.9432C149.357 35.0417 148.784 36.0076 147.979 36.8409C147.174 37.6648 146.18 38.3087 144.996 38.7727C143.813 39.2273 142.482 39.4545 141.005 39.4545ZM164.286 39.4545C162.184 39.4545 160.371 38.9905 158.846 38.0625C157.331 37.125 156.161 35.8182 155.337 34.142C154.523 32.4564 154.116 30.4962 154.116 28.2614C154.116 26.0265 154.523 24.0568 155.337 22.3523C156.161 20.6383 157.307 19.303 158.775 18.3466C160.252 17.3807 161.976 16.8977 163.945 16.8977C165.082 16.8977 166.204 17.0871 167.312 17.4659C168.42 17.8447 169.428 18.4602 170.337 19.3125C171.246 20.1553 171.971 21.2727 172.511 22.6648C173.05 24.0568 173.32 25.7708 173.32 27.8068V29.2273H156.502V26.3295H169.911C169.911 25.0985 169.665 24 169.173 23.0341C168.69 22.0682 167.998 21.3059 167.099 20.7472C166.209 20.1884 165.157 19.9091 163.945 19.9091C162.61 19.9091 161.455 20.2405 160.479 20.9034C159.513 21.5568 158.77 22.4091 158.249 23.4602C157.728 24.5114 157.468 25.6383 157.468 26.8409V28.7727C157.468 30.4205 157.752 31.8172 158.32 32.9631C158.898 34.0994 159.698 34.9659 160.721 35.5625C161.744 36.1496 162.932 36.4432 164.286 36.4432C165.167 36.4432 165.962 36.3201 166.673 36.0739C167.392 35.8182 168.013 35.4394 168.533 34.9375C169.054 34.4261 169.457 33.7917 169.741 33.0341L172.979 33.9432C172.638 35.0417 172.066 36.0076 171.261 36.8409C170.456 37.6648 169.461 38.3087 168.278 38.7727C167.094 39.2273 165.763 39.4545 164.286 39.4545ZM187.908 17.1818V20.0227H176.602V17.1818H187.908ZM179.897 11.9545H183.249V32.75C183.249 33.697 183.387 34.4072 183.661 34.8807C183.945 35.3447 184.305 35.6572 184.741 35.8182C185.186 35.9697 185.655 36.0455 186.147 36.0455C186.516 36.0455 186.819 36.0265 187.056 35.9886C187.293 35.9413 187.482 35.9034 187.624 35.875L188.306 38.8864C188.079 38.9716 187.762 39.0568 187.354 39.142C186.947 39.2367 186.431 39.2841 185.806 39.2841C184.859 39.2841 183.931 39.0805 183.022 38.6733C182.122 38.2661 181.374 37.6458 180.778 36.8125C180.191 35.9792 179.897 34.928 179.897 33.6591V11.9545Z" fill="#7CA7D8" fill-opacity="0.64"/>
<path d="M5.75 51.3913C29.8172 45.2493 63.2439 48.8321 76.9489 51.3913C113.852 59.7381 164.193 54.8691 184.75 51.3913" stroke="#88B1F8" stroke-opacity="0.72" stroke-width="4"/>
</svg>
